Sprint_04500001_forces_filt12Hz.mot
version=1
nRows=53
nColumns=19
inDegrees=yes
endheader
time	R_ground_force_vx	R_ground_force_vy	R_ground_force_vz	R_ground_force_px	R_ground_force_py	R_ground_force_pz	R_ground_torque_x	R_ground_torque_y	R_ground_torque_z	L_ground_force_vx	L_ground_force_vy	L_ground_force_vz	L_ground_force_px	L_ground_force_py	L_ground_force_pz	L_ground_torque_x	L_ground_torque_y	L_ground_torque_z	
1.962000	390.489184	989.376409	-28.732531	  0.457714	  0.011500	 -0.232925	  0.000000	  7.061298	  0.000000	  0.000000	  0.000000	  0.000000	  0.600127	  0.000000	 -0.339800	  0.000000	  0.000000	  0.000000
1.962500	389.045256	969.965941	-27.543781	  0.453432	  0.011500	 -0.232802	  0.000000	  6.278312	  0.000000	  0.000000	  0.000000	  0.000000	  0.601779	  0.000000	 -0.339614	  0.000000	  0.000000	  0.000000
1.963000	387.443432	950.656012	-26.237644	  0.449165	  0.011500	 -0.232668	  0.000000	  5.404804	  0.000000	  0.000000	  0.000000	  0.000000	  0.603432	  0.000000	 -0.339428	  0.000000	  0.000000	  0.000000
1.963500	385.679626	931.456189	-24.818306	  0.444922	  0.011500	 -0.232524	  0.000000	  4.443567	  0.000000	  0.000000	  0.000000	  0.000000	  0.605085	  0.000000	 -0.339242	  0.000000	  0.000000	  0.000000
1.964000	383.750114	912.375816	-23.290919	  0.440716	  0.011500	 -0.232368	  0.000000	  3.398420	  0.000000	  0.000000	  0.000000	  0.000000	  0.606738	  0.000000	 -0.339055	  0.000000	  0.000000	  0.000000
1.964500	381.651588	893.423890	-21.661618	  0.436556	  0.011500	 -0.232201	  0.000000	  2.274251	  0.000000	  0.000000	  0.000000	  0.000000	  0.608391	  0.000000	 -0.338869	  0.000000	  0.000000	  0.000000
1.965000	379.381218	874.608957	-19.937529	  0.432455	  0.011500	 -0.232024	  0.000000	  1.077041	  0.000000	  0.000000	  0.000000	  0.000000	  0.610044	  0.000000	 -0.338683	  0.000000	  0.000000	  0.000000
1.965500	376.936711	855.939037	-18.126759	  0.428425	  0.011500	 -0.231835	  0.000000	 -0.186141	  0.000000	  0.000000	  0.000000	  0.000000	  0.611728	  0.000000	 -0.338638	  0.000000	  0.000000	  0.000000
1.966000	374.316380	837.421563	-16.238365	  0.424477	  0.011500	 -0.231636	  0.000000	 -1.507167	  0.000000	  0.000000	  0.000000	  0.000000	  0.613412	  0.000000	 -0.338592	  0.000000	  0.000000	  0.000000
1.966500	371.519196	819.063323	-14.282310	  0.420623	  0.011500	 -0.231427	  0.000000	 -2.876905	  0.000000	  0.000000	  0.000000	  0.000000	  0.615096	  0.000000	 -0.338547	  0.000000	  0.000000	  0.000000
1.967000	368.544846	800.870373	-12.269398	  0.416875	  0.011500	 -0.231209	  0.000000	 -4.285304	  0.000000	  0.000000	  0.000000	  0.000000	  0.616780	  0.000000	 -0.338501	  0.000000	  0.000000	  0.000000
1.967500	365.393781	782.847941	-10.211189	  0.413243	  0.011500	 -0.230983	  0.000000	 -5.721501	  0.000000	  0.000000	  0.000000	  0.000000	  0.618465	  0.000000	 -0.338456	  0.000000	  0.000000	  0.000000
1.968000	362.067248	765.000314	 -8.119898	  0.409737	  0.011500	 -0.230750	  0.000000	 -7.173954	  0.000000	  0.000000	  0.000000	  0.000000	  0.620149	  0.000000	 -0.338411	  0.000000	  0.000000	  0.000000
1.968500	358.567315	747.330756	 -6.008276	  0.406365	  0.011500	 -0.230511	  0.000000	 -8.630586	  0.000000	  0.000000	  0.000000	  0.000000	  0.621833	  0.000000	 -0.338365	  0.000000	  0.000000	  0.000000
1.969000	354.896890	729.841470	 -3.889487	  0.403135	  0.011500	 -0.230268	  0.000000	-10.078954	  0.000000	  0.000000	  0.000000	  0.000000	  0.623517	  0.000000	 -0.338320	  0.000000	  0.000000	  0.000000
1.969500	351.059722	712.533609	 -1.776972	  0.400052	  0.011500	 -0.230021	  0.000000	-11.506433	  0.000000	  0.000000	  0.000000	  0.000000	  0.625201	  0.000000	 -0.338274	  0.000000	  0.000000	  0.000000
1.970000	347.060401	695.407351	  0.315682	  0.397121	  0.011500	 -0.229774	  0.000000	-12.900403	  0.000000	  0.000000	  0.000000	  0.000000	  0.626885	  0.000000	 -0.338229	  0.000000	  0.000000	  0.000000
1.970500	342.904359	678.462022	  2.374889	  0.394344	  0.011500	 -0.229526	  0.000000	-14.248451	  0.000000	  0.000000	  0.000000	  0.000000	  0.628770	  0.000000	 -0.337897	  0.000000	  0.000000	  0.000000
1.971000	338.597862	661.696235	  4.387210	  0.391720	  0.011500	 -0.229280	  0.000000	-15.538569	  0.000000	  0.000000	  0.000000	  0.000000	  0.630654	  0.000000	 -0.337565	  0.000000	  0.000000	  0.000000
1.971500	334.147989	645.108045	  6.339513	  0.389250	  0.011500	 -0.229038	  0.000000	-16.759340	  0.000000	  0.000000	  0.000000	  0.000000	  0.632539	  0.000000	 -0.337233	  0.000000	  0.000000	  0.000000
1.972000	329.562599	628.695091	  8.219129	  0.386930	  0.011500	 -0.228800	  0.000000	-17.900121	  0.000000	  0.000000	  0.000000	  0.000000	  0.634424	  0.000000	 -0.336901	  0.000000	  0.000000	  0.000000
1.972500	324.850279	612.454733	 10.014009	  0.384756	  0.011500	 -0.228568	  0.000000	-18.951201	  0.000000	  0.000000	  0.000000	  0.000000	  0.636308	  0.000000	 -0.336569	  0.000000	  0.000000	  0.000000
1.973000	320.020273	596.384177	 11.712883	  0.382723	  0.011500	 -0.228342	  0.000000	-19.903958	  0.000000	  0.000000	  0.000000	  0.000000	  0.638193	  0.000000	 -0.336237	  0.000000	  0.000000	  0.000000
1.973500	315.082396	580.480605	 13.305401	  0.380824	  0.011500	 -0.228123	  0.000000	-20.750978	  0.000000	  0.000000	  0.000000	  0.000000	  0.640078	  0.000000	 -0.335905	  0.000000	  0.000000	  0.000000
1.974000	310.046936	564.741307	 14.782255	  0.379050	  0.011500	 -0.227912	  0.000000	-21.486160	  0.000000	  0.000000	  0.000000	  0.000000	  0.641963	  0.000000	 -0.335573	  0.000000	  0.000000	  0.000000
1.974500	304.924556	549.163803	 16.135281	  0.377393	  0.011500	 -0.227708	  0.000000	-22.104778	  0.000000	  0.000000	  0.000000	  0.000000	  0.643847	  0.000000	 -0.335241	  0.000000	  0.000000	  0.000000
1.975000	299.726183	533.745955	 17.357527	  0.375842	  0.011500	 -0.227512	  0.000000	-22.603505	  0.000000	  0.000000	  0.000000	  0.000000	  0.645732	  0.000000	 -0.334909	  0.000000	  0.000000	  0.000000
1.975500	294.462904	518.486065	 18.443293	  0.374387	  0.011500	 -0.227321	  0.000000	-22.980410	  0.000000	  0.000000	  0.000000	  0.000000	  0.647644	  0.000000	 -0.334762	  0.000000	  0.000000	  0.000000
1.976000	289.145861	503.382958	 19.388147	  0.373016	  0.011500	 -0.227137	  0.000000	-23.234917	  0.000000	  0.000000	  0.000000	  0.000000	  0.649557	  0.000000	 -0.334614	  0.000000	  0.000000	  0.000000
1.976500	283.786151	488.436074	 20.188917	  0.371718	  0.011500	 -0.226957	  0.000000	-23.367753	  0.000000	  0.000000	  0.000000	  0.000000	  0.651469	  0.000000	 -0.334467	  0.000000	  0.000000	  0.000000
1.977000	278.394742	473.645565	 20.843661	  0.370481	  0.011500	 -0.226781	  0.000000	-23.380873	  0.000000	  0.000000	  0.000000	  0.000000	  0.653381	  0.000000	 -0.334320	  0.000000	  0.000000	  0.000000
1.977500	272.982385	459.012385	 21.351633	  0.369293	  0.011500	 -0.226607	  0.000000	-23.277364	  0.000000	  0.000000	  0.000000	  0.000000	  0.655293	  0.000000	 -0.334173	  0.000000	  0.000000	  0.000000
1.978000	267.559557	444.538359	 21.713228	  0.368143	  0.011500	 -0.226435	  0.000000	-23.061345	  0.000000	  0.000000	  0.000000	  0.000000	  0.657206	  0.000000	 -0.334025	  0.000000	  0.000000	  0.000000
1.978500	262.136400	430.226220	 21.929923	  0.367019	  0.011500	 -0.226262	  0.000000	-22.737842	  0.000000	  0.000000	  0.000000	  0.000000	  0.659118	  0.000000	 -0.333878	  0.000000	  0.000000	  0.000000
1.979000	256.722675	416.079609	 22.004206	  0.365913	  0.011500	 -0.226088	  0.000000	-22.312672	  0.000000	  0.000000	  0.000000	  0.000000	  0.661030	  0.000000	 -0.333731	  0.000000	  0.000000	  0.000000
1.979500	251.327719	402.103059	 21.939510	  0.364814	  0.011500	 -0.225911	  0.000000	-21.792329	  0.000000	  0.000000	  0.000000	  0.000000	  0.662943	  0.000000	 -0.333583	  0.000000	  0.000000	  0.000000
1.980000	245.960403	388.301970	 21.740141	  0.363715	  0.011500	 -0.225733	  0.000000	-21.183877	  0.000000	  0.000000	  0.000000	  0.000000	  0.664855	  0.000000	 -0.333436	  0.000000	  0.000000	  0.000000
1.980500	240.629086	374.682577	 21.411208	  0.362609	  0.011500	 -0.225551	  0.000000	-20.494870	  0.000000	  0.000000	  0.000000	  0.000000	  0.666849	  0.000000	 -0.333302	  0.000000	  0.000000	  0.000000
1.981000	235.341567	361.251922	 20.958564	  0.361490	  0.011500	 -0.225365	  0.000000	-19.733268	  0.000000	  0.000000	  0.000000	  0.000000	  0.668843	  0.000000	 -0.333168	  0.000000	  0.000000	  0.000000
1.981500	230.105039	348.017813	 20.388750	  0.360354	  0.011500	 -0.225177	  0.000000	-18.907376	  0.000000	  0.000000	  0.000000	  0.000000	  0.670837	  0.000000	 -0.333035	  0.000000	  0.000000	  0.000000
1.982000	224.926056	334.988761	 19.708942	  0.359197	  0.011500	 -0.224987	  0.000000	-18.025775	  0.000000	  0.000000	  0.000000	  0.000000	  0.672831	  0.000000	 -0.332901	  0.000000	  0.000000	  0.000000
1.982500	219.810497	322.173893	 18.926916	  0.358020	  0.011500	 -0.224796	  0.000000	-17.097259	  0.000000	  0.000000	  0.000000	  0.000000	  0.674824	  0.000000	 -0.332767	  0.000000	  0.000000	  0.000000
1.983000	214.763545	309.582848	 18.051010	  0.356821	  0.011500	 -0.224605	  0.000000	-16.130780	  0.000000	  0.000000	  0.000000	  0.000000	  0.676818	  0.000000	 -0.332633	  0.000000	  0.000000	  0.000000
1.983500	209.789668	297.225653	 17.090082	  0.355603	  0.011500	 -0.224416	  0.000000	-15.135381	  0.000000	  0.000000	  0.000000	  0.000000	  0.678812	  0.000000	 -0.332499	  0.000000	  0.000000	  0.000000
1.984000	204.892599	285.112521	 16.053462	  0.354368	  0.011500	 -0.224231	  0.000000	-14.120134	  0.000000	  0.000000	  0.000000	  0.000000	  0.680806	  0.000000	 -0.332366	  0.000000	  0.000000	  0.000000
1.984500	200.075319	273.253391	 14.950889	  0.353121	  0.011500	 -0.224052	  0.000000	-13.094068	  0.000000	  0.000000	  0.000000	  0.000000	  0.682800	  0.000000	 -0.332232	  0.000000	  0.000000	  0.000000
1.985000	195.340059	261.657327	 13.792431	  0.351865	  0.011500	 -0.223880	  0.000000	-12.066095	  0.000000	  0.000000	  0.000000	  0.000000	  0.684794	  0.000000	 -0.332098	  0.000000	  0.000000	  0.000000
1.985500	190.688313	250.332149	 12.588384	  0.350606	  0.011500	 -0.223719	  0.000000	-11.044917	  0.000000	  0.000000	  0.000000	  0.000000	  0.686877	  0.000000	 -0.331948	  0.000000	  0.000000	  0.000000
1.986000	186.120867	239.284387	 11.349167	  0.349348	  0.011500	 -0.223571	  0.000000	-10.038928	  0.000000	  0.000000	  0.000000	  0.000000	  0.688959	  0.000000	 -0.331799	  0.000000	  0.000000	  0.000000
1.986500	181.637851	228.519332	 10.085209	  0.348097	  0.011500	 -0.223436	  0.000000	 -9.056111	  0.000000	  0.000000	  0.000000	  0.000000	  0.691042	  0.000000	 -0.331649	  0.000000	  0.000000	  0.000000
1.987000	177.238795	218.041097	  8.806833	  0.346857	  0.011500	 -0.223317	  0.000000	 -8.103924	  0.000000	  0.000000	  0.000000	  0.000000	  0.693124	  0.000000	 -0.331499	  0.000000	  0.000000	  0.000000
1.987500	172.922671	207.852663	  7.524146	  0.346181	  0.010455	 -0.222975	  0.000000	 -7.189201	  0.000000	  0.000000	  0.000000	  0.000000	  0.695207	  0.000000	 -0.331350	  0.000000	  0.000000	  0.000000
1.988000	168.687942	197.955937	  6.246946	  0.345506	  0.009409	 -0.222633	  0.000000	 -6.318070	  0.000000	  0.000000	  0.000000	  0.000000	  0.697290	  0.000000	 -0.331200	  0.000000	  0.000000	  0.000000
